<svg version="1.1" id="Layer_1" xmlns="http://www.w3.org/2000/svg" xmlns:xlink="http://www.w3.org/1999/xlink" x="0px" y="0px"
	 width="100%" viewBox="59 24 946 473" enable-background="new 59 24 946 473" xml:space="preserve">
<path fill="#2a3a1e" opacity="1.000000" stroke="#5a7a30" stroke-width="4" stroke-linejoin="round" 
	d="
M500.487030,141.422775 
	C526.772217,144.721176 552.707947,145.504776 578.722168,144.811691 
	C587.913513,144.566788 596.928650,146.571121 605.953247,148.055679 
	C618.117554,150.056717 628.570129,146.962570 637.758972,138.669205 
	C645.713562,131.489777 651.231018,122.684380 656.284302,113.427109 
	C660.670227,105.392654 664.203003,96.884712 669.492615,89.352768 
	C670.845520,87.426193 670.730042,85.942383 669.239380,84.021202 
	C657.460449,68.840714 658.051514,52.510395 665.851318,36.103958 
	C670.888733,25.507969 681.028992,23.650267 690.466675,30.594244 
	C695.948975,34.627899 699.813843,39.943211 702.606506,46.008812 
	C705.263550,45.632244 705.515442,43.505283 706.385071,42.054760 
	C708.615662,38.334179 710.800049,34.578983 713.776184,31.400099 
	C719.419128,25.372665 725.787842,26.025614 730.340210,32.978893 
	C731.831482,35.256611 733.023804,37.789936 733.059265,40.412743 
	C733.184753,49.684174 734.785950,59.116737 731.131348,68.092133 
	C730.073425,70.690445 731.143555,71.753670 733.229492,72.670311 
	C743.341370,77.113815 751.537598,84.062897 758.966370,92.099617 
	C763.617310,97.131203 769.105896,101.238396 774.643555,105.254433 
	C779.908936,109.073051 785.112427,112.977493 789.524597,117.800133 
	C797.000122,125.971245 795.751953,136.875229 786.609253,143.159470 
	C782.978699,145.654953 780.142944,148.645325 778.104736,152.694489 
	C775.088684,158.686157 771.051636,164.035187 765.122498,167.568604 
	C762.682495,169.022690 760.089050,170.904160 758.148682,167.241989 
	C755.046082,169.134247 752.387878,170.841202 749.642883,172.394760 
	C748.184998,173.219879 746.425476,173.967743 745.095581,172.348953 
	C743.814209,170.789291 744.765320,169.168579 745.711426,167.766464 
	C748.044495,164.309250 750.246155,160.796524 751.892639,156.935547 
	C753.525696,153.106201 752.675476,151.083817 748.314575,150.342102 
	C740.696045,149.046310 733.045044,149.392883 725.392822,149.233353 
	C722.143250,149.165604 721.054688,151.180389 720.179138,153.623901 
	C716.530151,163.808197 712.913513,174.004059 709.277527,184.193024 
	C702.472961,203.261414 692.377686,220.355240 678.647278,235.273636 
	C666.370911,248.612228 657.333069,264.178223 647.990051,279.562164 
	C639.750549,293.129181 628.176270,302.923889 612.891235,307.676086 
	C608.207947,309.132141 606.859802,311.860504 606.253845,316.255646 
	C604.613525,328.153564 606.139526,339.843292 608.227417,351.460571 
	C610.222290,362.560486 610.007629,373.645813 609.244141,384.784943 
	C607.715515,407.086578 613.561157,428.367950 618.384399,449.764404 
	C619.860962,456.314697 623.110168,462.217438 627.632263,467.283691 
	C632.790039,473.062164 636.332458,479.881134 640.106750,486.540192 
	C642.343140,490.485809 641.395264,492.254913 636.947449,493.168182 
	C630.152710,494.563354 623.395752,494.170868 616.617004,492.913757 
	C609.754395,491.641022 605.213257,487.713135 602.816406,481.271973 
	C601.964478,478.982361 600.902649,477.289642 598.362183,476.383575 
	C595.226501,475.265228 594.409912,472.111603 593.463928,469.249939 
	C590.168640,459.281555 590.236267,448.839020 589.884216,438.590057 
	C589.110046,416.051483 583.114197,395.006317 573.346558,373.807739 
	C569.574951,384.968475 564.515320,394.898773 563.397217,406.039307 
	C562.250793,417.461151 561.108459,428.906372 560.655762,440.368652 
	C560.150513,453.160889 562.830688,465.170654 571.710693,475.159637 
	C574.269836,478.038361 578.458557,481.066498 576.352356,485.339844 
	C574.301575,489.500824 569.221680,489.145538 565.135864,489.131195 
	C561.171326,489.117279 557.178101,488.495697 553.253174,487.818390 
	C545.020447,486.397766 539.742188,481.874207 538.351929,473.271057 
	C537.712341,469.313416 536.171753,466.075043 532.685913,463.235962 
	C528.180420,459.566406 529.190613,453.774353 530.288879,448.713654 
	C532.580139,438.155670 535.966553,427.873627 537.950195,417.211487 
	C540.816772,401.804382 540.211304,386.373810 539.253479,370.907837 
	C538.080933,351.974579 535.366638,333.159576 534.857666,314.173431 
	C534.696533,308.165161 533.951355,307.445496 527.754150,307.250610 
	C500.955139,306.407928 474.191071,305.106079 447.736053,300.350708 
	C442.342651,299.381256 437.011292,298.007202 431.713501,296.587616 
	C428.491364,295.724243 426.131134,296.058990 423.931061,298.965912 
	C414.455139,311.486115 403.553253,322.726929 392.224030,333.565002 
	C387.398743,338.181122 383.164948,343.282074 379.103973,348.600739 
	C370.947723,359.282990 369.358551,371.004089 372.931549,383.566162 
	C379.242188,405.753082 388.532227,426.772919 398.974457,447.263672 
	C402.612061,454.401764 408.795746,459.844727 413.809235,466.066376 
	C416.847992,469.837402 419.740204,473.680939 422.157440,477.889618 
	C423.869568,480.870636 423.290436,482.772400 420.062622,484.158203 
	C406.539459,489.964142 389.512634,484.773651 381.732971,472.318481 
	C380.361237,470.122345 378.929626,468.497437 376.053558,468.046631 
	C372.366486,467.468750 370.653229,464.348724 369.490143,461.139465 
	C367.505005,455.662018 365.562531,450.162079 363.838318,444.598358 
	C354.304962,413.836212 340.905579,384.569672 329.131866,354.674835 
	C328.898132,354.081329 328.433289,353.578888 327.793182,352.601959 
	C322.964996,354.836975 319.313904,358.398987 316.067291,362.298950 
	C308.971649,370.822449 305.057251,380.709412 303.248260,391.676636 
	C300.451477,408.632446 299.166046,425.705292 298.484558,442.831207 
	C298.026154,454.350189 299.811096,465.349152 307.084900,474.955505 
	C309.671661,478.371796 311.595703,482.345886 313.456207,486.240234 
	C315.300873,490.101440 314.079773,493.395691 309.906189,494.523865 
	C301.165955,496.886566 292.402191,496.865723 284.106354,492.712830 
	C279.837097,490.575714 278.478088,486.432312 277.683563,481.999084 
	C276.820251,477.182007 276.544464,472.252380 270.281464,470.365448 
	C267.107422,469.409210 266.717224,465.453522 266.675964,462.166656 
	C266.553955,452.448242 268.837097,443.015167 270.066315,433.457092 
	C272.866852,411.681274 275.592133,389.894531 276.712860,367.952271 
	C277.205566,358.306885 277.387970,348.645386 277.687866,338.990479 
	C277.899719,332.169891 281.699371,327.525391 286.941925,323.814819 
	C293.213654,319.375763 299.146545,314.558899 304.538574,309.065674 
	C315.869049,297.522491 317.968079,286.449432 311.265503,271.769257 
	C309.541016,267.992188 307.294861,264.452728 305.276581,260.810669 
	C304.618347,259.622894 303.869873,258.439514 302.340271,258.382355 
	C297.869873,258.215302 296.048828,255.167755 294.772552,251.526596 
	C290.518402,239.389526 287.041412,226.884933 286.200867,214.165756 
	C285.044159,196.661697 289.619537,180.362778 304.740570,169.561539 
	C328.308105,152.726822 353.183868,138.348618 382.323212,133.230316 
	C396.086243,130.812866 409.868744,131.407806 423.645508,132.874313 
	C448.463287,135.516113 473.268890,138.272629 498.078735,140.988937 
	C498.738190,141.061142 499.387970,141.221756 500.487030,141.422775 
z"/>
</svg>