<svg version="1.1" id="Layer_1" xmlns="http://www.w3.org/2000/svg" xmlns:xlink="http://www.w3.org/1999/xlink" x="0px" y="0px"
	 width="100%" viewBox="84 21 878 439" enable-background="new 84 21 878 439" xml:space="preserve">
<path fill="#2a3a1e" opacity="1.000000" stroke="#5a7a30" stroke-width="4" stroke-linejoin="round" 
	d="
M550.700073,32.925842 
	C553.405334,30.444216 554.848877,31.660116 555.624634,34.230904 
	C556.665710,37.680908 558.744080,37.930412 561.800842,36.873287 
	C566.328552,35.307468 570.734741,33.076809 575.791809,33.697533 
	C578.054260,33.975243 580.327271,34.423363 580.812683,36.961418 
	C581.299194,39.505211 578.989868,40.282387 577.207092,41.075333 
	C567.736267,45.287930 563.633728,53.042912 563.187317,62.895046 
	C562.632629,75.138321 564.699768,87.154053 568.066406,98.840645 
	C570.611267,107.674461 576.365540,114.126907 585.409729,117.582291 
	C587.657715,113.938629 586.506042,110.071953 587.587891,106.629501 
	C588.608032,103.383476 589.684387,100.282936 592.501038,98.173378 
	C593.694214,97.279716 595.086487,96.363037 596.594177,97.502213 
	C597.869995,98.466141 597.782043,100.021385 597.172852,101.167351 
	C593.834167,107.447762 596.164490,113.906921 596.352966,120.301048 
	C596.446594,123.478470 598.789490,124.628006 601.166016,125.299911 
	C606.927368,126.928764 612.770813,128.273315 618.598572,129.659210 
	C622.164307,130.507187 625.728027,131.304260 629.029907,132.989868 
	C631.663574,134.334305 634.489685,136.398270 637.144714,133.400223 
	C639.075928,131.219391 637.580933,123.933472 635.059021,121.955971 
	C629.720886,117.770317 623.258301,117.790001 616.968567,117.397331 
	C611.622498,117.063576 606.877075,115.406151 602.847351,111.879898 
	C601.860291,111.016121 600.949463,109.973412 600.295654,108.843872 
	C599.477661,107.430557 598.503113,105.725204 600.145020,104.314178 
	C601.467285,103.177841 602.978516,103.748512 604.281738,104.677757 
	C607.077759,106.671387 610.156433,107.756775 613.617920,107.689224 
	C615.712585,107.648354 617.803833,107.244171 618.747864,105.242271 
	C619.836243,102.934433 617.987549,101.472244 616.421326,100.287437 
	C613.036377,97.726807 612.826172,95.304153 613.338501,90.728638 
	C613.895020,85.757538 611.676025,80.694794 616.005981,76.144699 
	C616.700562,75.414856 615.144653,72.458672 614.511536,70.571106 
	C613.688232,68.116417 611.595337,65.673256 613.646118,63.091782 
	C616.058350,60.055347 617.968262,64.392349 620.623474,63.811340 
	C622.655884,60.590611 621.602783,56.955948 621.340759,53.418343 
	C621.206116,51.600861 620.756958,49.800423 620.702637,47.984726 
	C620.621826,45.280190 620.685547,42.216354 623.698547,41.203857 
	C626.822266,40.154152 626.684692,44.132145 628.809998,45.483776 
	C630.403564,41.999401 629.506592,38.495842 629.588684,35.099789 
	C629.624756,33.610580 629.350281,32.103607 629.487488,30.629913 
	C629.632935,29.068062 630.368408,27.658104 632.113098,27.393723 
	C633.954224,27.114729 634.872864,28.460760 635.347412,29.917900 
	C636.424683,33.225376 637.330566,36.588661 638.547791,40.756615 
	C638.978149,39.442398 639.107727,38.878475 639.341492,38.361675 
	C640.385620,36.053066 640.260803,32.168854 643.579407,32.394039 
	C647.180054,32.638363 647.603455,36.523338 648.030090,39.388741 
	C648.491882,42.490532 648.680298,45.771954 648.199707,48.852039 
	C645.544861,65.867439 648.449219,83.143852 645.545288,100.175003 
	C644.726440,104.977310 645.120789,110.331635 649.767273,114.197594 
	C651.821106,111.818504 650.765259,109.601730 650.872681,107.551071 
	C650.945557,106.159668 651.049988,104.713303 652.493042,104.184052 
	C654.241516,103.542809 655.245667,104.826408 656.107483,106.124329 
	C656.199463,106.262794 656.263123,106.420990 656.361450,106.554085 
	C657.726990,108.401886 657.542908,112.175751 661.015015,111.436958 
	C664.163879,110.766953 665.628052,107.852692 666.669128,104.937149 
	C666.724915,104.781120 666.720703,104.599686 666.792786,104.454056 
	C667.876892,102.264175 667.124939,97.890221 670.647034,98.541870 
	C674.395569,99.235420 673.364868,103.413170 673.127380,106.241531 
	C672.560242,112.995972 669.088135,118.355804 663.439636,121.788818 
	C659.434387,124.223061 658.410645,127.575127 657.945251,131.642883 
	C669.022095,132.720657 678.637024,124.960808 679.681641,114.259254 
	C679.730103,113.762444 679.713623,113.259605 679.751038,112.761330 
	C679.890015,110.907303 679.971924,108.661385 682.186279,108.374825 
	C684.839844,108.031433 685.284302,110.585045 685.693359,112.432259 
	C687.552429,120.828224 685.715942,128.288696 679.594727,134.508591 
	C678.550598,135.569565 677.382263,136.508331 675.694336,138.020401 
	C681.673645,138.768631 680.550232,142.151520 678.922058,145.529648 
	C677.695312,148.074753 676.322205,150.568909 674.797974,152.947098 
	C671.276489,158.441406 671.629333,163.510834 676.640503,168.078156 
	C682.300171,173.236420 688.353821,177.950073 694.739319,182.213501 
	C701.477173,186.712189 701.511230,192.126221 696.641663,198.490585 
	C691.491089,205.222336 685.763184,206.161087 677.885498,204.857269 
	C671.645142,203.824463 665.123047,206.264709 658.658630,206.754425 
	C655.484741,206.994873 655.158264,211.092804 655.543091,213.812775 
	C656.449768,220.220734 657.781311,226.277435 655.315674,232.915527 
	C648.143494,252.224854 641.355713,271.658813 623.334595,284.051666 
	C615.052856,289.746887 608.818909,297.143738 603.392273,305.461945 
	C599.060669,312.101685 593.566650,317.655945 586.204712,321.022858 
	C583.888184,322.082275 582.653687,323.656525 582.247009,326.279266 
	C580.184998,339.576324 577.138367,352.756409 578.982361,366.405792 
	C579.348389,369.115570 578.666199,372.060822 578.032043,374.796570 
	C574.210571,391.282990 576.443909,407.561829 579.623962,423.792664 
	C580.301514,427.251099 582.158813,430.268555 584.617859,432.892334 
	C586.322754,434.711273 588.008606,436.595520 589.386108,438.661774 
	C591.133057,441.282318 595.075867,443.598999 592.913330,447.207886 
	C590.952881,450.479523 586.869263,450.345795 583.347290,450.021942 
	C580.545898,449.764343 577.753967,449.204346 575.011841,448.551514 
	C571.239563,447.653442 568.735962,445.444183 568.731079,441.271240 
	C568.727173,437.978210 567.168823,436.766449 563.732788,437.419647 
	C564.746582,441.793549 568.184753,444.747314 569.977661,448.585358 
	C572.034363,452.987976 571.302185,454.904388 566.689209,456.517273 
	C558.143616,459.505280 548.819824,454.669983 546.422302,446.042206 
	C546.076721,444.798767 546.126221,442.999573 544.671509,442.659790 
	C539.772034,441.515350 540.226379,437.903381 540.675293,434.377869 
	C542.403687,420.805084 543.017578,407.178528 542.926697,393.506958 
	C542.831726,379.229309 538.082947,365.698730 536.261169,351.694550 
	C535.404541,345.109711 533.994751,338.598663 532.952393,332.035583 
	C532.246277,327.590057 529.808960,325.989166 525.335754,326.102753 
	C514.148682,326.386780 503.164795,328.452698 492.077057,329.571472 
	C484.838165,330.301880 477.819641,329.758484 470.734314,328.429352 
	C465.002075,327.354065 464.139984,328.454651 465.636505,334.037415 
	C466.909882,338.787689 466.909943,338.787659 461.013367,345.593384 
	C459.352753,345.165039 459.348694,343.556976 459.088226,342.406799 
	C457.222382,334.166870 451.232819,329.573883 444.561401,325.474792 
	C441.139465,323.372192 439.722900,325.686829 438.319519,328.063599 
	C432.478424,337.956055 427.259918,348.278534 420.709808,357.674164 
	C412.426636,369.555786 411.988068,381.604034 416.871002,394.599396 
	C421.031738,405.672760 425.242371,416.718811 430.443420,427.354370 
	C433.995880,434.618744 440.230713,439.962830 444.455261,446.775970 
	C448.526672,453.342102 447.489105,455.772583 439.703461,456.772369 
	C430.932068,457.898743 426.141205,455.409302 421.760773,447.370453 
	C421.262085,446.455200 420.803284,445.473145 419.713989,445.398102 
	C414.606964,445.046234 414.003296,441.474915 413.373413,437.394623 
	C411.395203,424.579956 406.409882,412.781097 400.627411,401.272522 
	C395.475922,391.019867 392.371246,379.848938 386.504517,369.896332 
	C384.651825,366.753326 384.478790,363.260437 386.348816,359.854523 
	C386.879272,358.888397 387.257111,357.746521 386.339752,356.076660 
	C377.593567,361.880157 371.975708,369.750610 369.565918,379.525970 
	C365.970917,394.109192 364.765442,409.056183 364.272827,424.054962 
	C364.143951,427.978607 365.921570,431.106293 367.974060,434.181335 
	C370.285278,437.643951 372.699310,441.043365 374.876404,444.588318 
	C376.667572,447.504852 375.859589,449.881012 372.474243,450.672028 
	C367.027161,451.944763 361.536682,451.932343 356.327301,449.583008 
	C353.597504,448.351868 351.861206,446.205200 351.646759,443.019287 
	C351.434479,439.865204 351.151123,437.092682 347.374786,435.471619 
	C344.586365,434.274628 344.487274,430.803406 345.086517,427.886719 
	C349.996002,403.990692 351.929169,379.817413 351.819061,355.460938 
	C351.796021,350.366547 353.905457,346.564392 357.784393,343.428558 
	C363.233704,339.023193 368.284119,334.239136 372.449738,328.507385 
	C378.319000,320.431305 377.432922,306.522705 370.923676,298.213715 
	C366.485413,303.543365 364.394287,311.659485 355.822205,312.207153 
	C354.571014,310.089020 356.011841,309.008698 356.665039,307.798889 
	C357.577820,306.108398 358.056671,304.349945 357.564056,302.509949 
	C353.567139,287.580994 351.200439,272.777130 354.418152,257.093597 
	C355.613831,251.265594 357.697998,246.804840 361.509338,243.243179 
	C381.167572,224.872879 403.450378,212.561249 431.420776,212.578705 
	C452.624939,212.591949 473.623383,214.930939 494.700928,216.470428 
	C507.576447,217.410858 520.317505,216.101944 532.879822,213.271515 
	C542.712524,211.056091 552.490906,210.155258 562.591125,211.567535 
	C568.681335,212.419098 575.014404,212.360321 581.150635,211.781128 
	C585.641724,211.357224 590.068176,209.054062 592.812500,205.382553 
	C600.478821,195.126343 603.527710,182.519379 609.392090,171.315475 
	C610.715576,168.786896 608.538940,167.499573 606.705383,166.187180 
	C598.740784,160.486542 595.421082,152.053131 593.266785,142.968582 
	C592.867615,141.285202 593.399658,139.692245 594.479736,137.334122 
	C583.171692,134.791687 574.128723,127.905891 563.584412,124.308220 
	C559.527100,122.923889 555.340881,123.312309 551.193604,123.380478 
	C547.439148,123.442192 544.354675,122.157303 541.858887,119.415268 
	C540.855347,118.312630 539.640259,117.131126 540.322693,115.477798 
	C541.135925,113.507622 542.896606,113.714539 544.607178,114.028267 
	C545.399414,114.173576 546.219177,114.568428 547.247498,113.677513 
	C546.377869,110.242203 543.660889,108.401024 540.703857,106.922531 
	C537.879089,105.510185 534.872620,104.464943 532.022156,103.099373 
	C528.348083,101.339211 525.429138,98.665009 525.823792,94.299614 
	C526.211426,90.011467 524.413940,87.324211 521.092590,85.167282 
	C518.339417,83.379402 517.150269,81.591072 519.739197,78.338280 
	C522.555847,74.799309 520.059387,71.762909 517.481201,69.213501 
	C516.312927,68.058250 514.798157,67.259476 513.478149,66.249893 
	C512.032593,65.144302 510.182861,64.063156 511.263428,61.844967 
	C512.182739,59.957893 514.074280,59.749870 516.012756,59.851738 
	C518.446533,59.979630 520.561646,62.018131 523.195618,61.124344 
	C524.669373,58.444374 522.815125,56.592289 521.667114,54.703026 
	C519.524719,51.177319 518.254333,47.492565 518.736084,43.321541 
	C518.969543,41.299934 519.168701,39.016487 521.606506,38.627068 
	C524.269775,38.201637 524.712036,40.525314 525.311401,42.451725 
	C526.247070,45.458847 527.257507,48.424984 530.540771,49.591640 
	C533.254333,47.839157 532.287598,45.570126 532.015991,43.527996 
	C531.085632,36.533928 533.092346,30.328537 537.072144,24.696562 
	C538.409302,22.804214 540.122009,20.561930 542.781555,21.935471 
	C545.399109,23.287378 544.011719,25.755232 543.330750,27.713814 
	C542.155151,31.095100 541.582886,34.496025 542.416992,38.014629 
	C542.762878,39.473724 543.258484,41.103981 545.110535,41.155731 
	C546.668762,41.199276 547.250488,39.763111 547.851562,38.579315 
	C548.754089,36.801662 549.607422,34.999004 550.700073,32.925842 
M557.885925,398.521729 
	C557.968994,404.349915 557.989441,410.179901 558.152832,416.005829 
	C558.315308,421.795410 557.633789,427.782440 562.024231,434.056549 
	C561.141174,428.613800 562.832336,424.612335 562.705322,420.418610 
	C562.574341,416.092499 562.716614,411.758850 562.673523,407.429169 
	C562.632141,403.268311 562.826904,399.069336 562.327332,394.958893 
	C561.834229,390.902802 562.388855,386.568481 560.233276,382.104828 
	C557.466309,387.515961 558.141907,392.589630 557.885925,398.521729 
z"/>
</svg>