<svg version="1.1" id="Layer_1" xmlns="http://www.w3.org/2000/svg" xmlns:xlink="http://www.w3.org/1999/xlink" x="0px" y="0px"
	 width="100%" viewBox="168 120 748 374" enable-background="new 168 120 748 374" xml:space="preserve">
<path fill="#2a3a1e" opacity="1.000000" stroke="#5a7a30" stroke-width="4" stroke-linejoin="round" 
	d="
M312.506134,245.758072 
	C315.737518,233.345001 324.244019,225.360428 333.454285,218.054367 
	C356.789093,199.544052 381.683533,184.133713 411.798584,179.197739 
	C438.929688,174.750839 466.137543,172.914124 493.187500,178.903503 
	C507.130615,181.990784 520.702393,186.759048 534.435669,190.789261 
	C558.704346,197.911194 582.900879,205.290390 607.258606,212.092957 
	C622.463318,216.339294 635.267090,209.734436 647.360962,201.455032 
	C650.186340,199.520767 650.005676,197.264664 647.492188,194.859131 
	C640.487427,188.155197 637.730652,179.557465 636.930176,170.167816 
	C636.202332,161.630035 638.395020,158.447525 646.771362,155.725998 
	C647.385437,155.526489 648.256409,155.331421 648.490723,154.871048 
	C650.904114,150.129440 655.407532,149.688141 659.838135,149.509613 
	C661.050354,146.799683 659.290222,145.062027 658.463196,143.213333 
	C655.798096,137.255661 654.424072,131.213974 656.632446,124.815361 
	C657.415894,122.545441 658.511230,120.259102 661.411133,120.530273 
	C664.315491,120.801857 664.177307,123.296478 664.499390,125.461403 
	C666.150391,136.557892 672.922058,144.415009 681.071899,151.369568 
	C682.622375,152.692657 684.517578,153.465500 685.790588,151.405121 
	C687.279724,148.995117 691.461792,147.475677 688.886536,143.446274 
	C685.839539,138.678894 683.097168,133.704575 678.942261,129.723907 
	C677.188416,128.043564 674.623047,126.248085 676.421509,123.438660 
	C678.376282,120.385101 681.429382,121.498268 684.069336,122.578049 
	C688.823425,124.522575 692.337341,128.114075 695.697632,131.845856 
	C699.838196,136.444183 703.236145,141.593765 706.665588,146.720245 
	C708.760864,149.852341 710.784607,150.615891 712.682800,146.496918 
	C713.484253,144.757797 714.678467,143.253632 716.885193,143.684891 
	C719.311951,144.159149 720.347534,146.438354 719.935547,148.227280 
	C718.342468,155.144836 722.029480,159.723221 725.534729,165.087677 
	C740.376831,187.801788 752.022461,212.466354 767.605957,234.759018 
	C769.315857,237.205139 770.782288,239.862350 772.054382,242.566223 
	C776.472778,251.957382 771.877625,260.831940 761.716980,263.066711 
	C752.571655,265.078156 742.911499,264.995178 734.424927,269.765930 
	C733.161316,270.476227 731.974182,270.696503 730.555847,269.100586 
	C728.233521,266.487518 730.228455,264.587524 731.212891,262.114502 
	C725.849609,259.155701 719.881775,259.117889 714.363220,257.605408 
	C705.277283,255.115173 705.274597,255.322739 700.977478,263.507660 
	C691.666809,281.242096 677.738403,295.161926 663.024841,308.246460 
	C649.692139,320.103088 635.491577,330.916382 619.241882,338.663391 
	C617.228333,339.623352 616.198914,341.016968 616.043396,343.269928 
	C615.665649,348.744537 614.939392,354.202271 614.742004,359.680786 
	C614.106689,377.314941 612.632812,395.001129 613.424438,412.579742 
	C614.120178,428.026581 619.421692,442.886719 624.507202,457.491028 
	C626.833252,464.170959 632.862549,468.611908 637.176453,474.095825 
	C638.604248,475.910797 640.673523,477.596741 639.810608,480.197540 
	C638.866577,483.042755 636.107117,483.042053 633.635742,483.568268 
	C628.103210,484.746338 622.688660,483.876495 617.259460,483.013123 
	C612.410461,482.242004 609.935486,478.765198 608.038269,474.693726 
	C606.565674,471.533264 605.291809,468.401642 601.722595,466.692474 
	C599.263611,465.514954 599.213013,462.515900 598.820312,460.076416 
	C597.075256,449.238251 595.164185,438.418396 593.783936,427.532196 
	C592.251709,415.447449 585.873901,405.382111 580.991455,394.667511 
	C579.296570,390.948090 577.980835,387.055847 575.527283,383.262207 
	C575.151611,385.475769 574.591553,387.676270 574.433594,389.905273 
	C573.876404,397.765533 572.219910,405.389099 569.644714,412.808594 
	C568.155396,417.099335 567.379822,421.453827 567.254700,425.997803 
	C566.924011,437.999237 567.128296,449.973877 568.349609,461.926544 
	C569.004150,468.332123 572.336792,473.434296 575.858032,478.566345 
	C578.015076,481.710236 581.982544,484.852417 579.592651,489.174408 
	C577.394104,493.150421 572.639404,492.696136 568.752625,492.941772 
	C557.756775,493.636688 552.816772,490.008728 549.908203,479.404266 
	C549.090210,476.421997 548.041992,473.844147 545.188293,472.117126 
	C541.999329,470.187225 542.061035,466.844574 542.357056,463.623810 
	C543.179077,454.680145 543.872498,445.718750 544.967957,436.807526 
	C546.490601,424.420990 546.384521,412.302032 541.744385,400.431122 
	C536.113342,386.025208 535.069397,370.641022 532.650269,355.544617 
	C530.144775,339.909973 532.177612,341.626709 515.070312,339.289948 
	C497.199005,336.848846 478.964966,339.034821 461.287781,335.944092 
	C451.394562,334.214325 446.526825,336.648407 441.710205,345.082031 
	C435.422729,356.091095 425.699646,364.667847 416.699829,373.535645 
	C408.228485,381.882629 406.909790,390.823456 411.782837,401.181030 
	C422.048096,422.999573 434.554443,443.361908 450.812469,461.298218 
	C454.500397,465.366852 458.205963,469.447662 461.536407,473.803497 
	C464.317322,477.440582 463.481293,479.404663 459.243347,480.769653 
	C447.546143,484.537170 434.658936,480.783691 426.616913,471.279358 
	C426.081360,470.646454 425.560089,469.687103 424.884796,469.535248 
	C417.731354,467.926971 416.150055,461.490570 413.236420,456.240723 
	C402.400970,436.717010 391.062805,417.490967 379.265076,398.533844 
	C374.710632,391.215576 369.760315,384.036835 370.847382,373.782349 
	C361.087006,378.301361 354.442627,384.480194 352.699799,393.716949 
	C348.366974,416.680115 350.170746,439.460663 357.296600,461.749817 
	C359.405212,468.345306 364.011017,473.609650 367.275635,479.595459 
	C371.058807,486.531921 369.202698,490.348022 361.350220,491.198090 
	C355.777496,491.801361 350.403107,490.639862 345.202271,488.678436 
	C342.343018,487.600067 340.690552,485.362274 339.735565,482.551544 
	C338.237701,478.142822 336.946869,473.702820 332.685516,470.849365 
	C330.799347,469.586365 330.698853,467.119232 330.533569,464.925446 
	C328.995697,444.511566 327.182861,424.113586 326.018799,403.678528 
	C325.458862,393.848969 324.351715,384.108795 322.976562,374.401978 
	C321.356262,362.964966 323.664795,353.686676 334.537323,347.651093 
	C339.774689,344.743713 344.500549,340.924683 348.524414,336.422882 
	C355.663727,328.435516 353.148438,316.525208 343.371613,311.767548 
	C341.628448,313.060272 341.582306,315.236633 340.785767,317.007843 
	C337.952606,323.307983 333.605255,324.199310 328.827087,319.141083 
	C321.958405,311.869751 317.230896,303.169312 314.118835,293.812256 
	C308.921722,278.185883 307.836884,262.221191 312.506134,245.758072 
z"/>
</svg>