<svg version="1.1" id="Layer_1" xmlns="http://www.w3.org/2000/svg" xmlns:xlink="http://www.w3.org/1999/xlink" x="0px" y="0px"
	 width="100%" viewBox="94 27 858 429" enable-background="new 94 27 858 429" xml:space="preserve">
<path fill="#2a3a1e" opacity="1.000000" stroke="#5a7a30" stroke-width="4" stroke-linejoin="round" 
	d="
M635.189392,72.181839 
	C632.053894,82.658638 631.125671,92.800926 634.296692,103.049088 
	C634.987488,105.281578 635.713135,107.523399 637.213684,109.358498 
	C639.000854,111.544113 641.185303,112.440727 643.772644,110.684654 
	C649.380920,106.878166 651.939941,104.875961 649.708618,98.700386 
	C649.373840,97.773964 649.270935,96.751167 649.151978,95.761978 
	C648.900208,93.666870 647.912903,91.182846 650.313171,89.875450 
	C652.767639,88.538513 653.332031,91.839874 655.286560,92.546669 
	C656.449585,89.669640 656.415833,86.796890 656.143921,83.811623 
	C655.721375,79.172394 655.302490,74.495964 656.686951,69.912025 
	C657.086426,68.589394 657.623352,67.265457 659.252380,67.291016 
	C660.672241,67.313293 661.055176,68.503983 661.327820,69.702950 
	C664.209412,82.373009 667.719849,94.932343 661.796204,107.841087 
	C659.861511,112.057167 661.444519,116.903191 661.543762,122.247681 
	C668.142029,117.435669 671.774292,111.892128 671.975159,104.347290 
	C672.046082,101.683228 671.974976,99.013802 672.105835,96.353569 
	C672.172058,95.007996 672.556519,93.541756 674.110474,93.229767 
	C676.047546,92.840820 676.694763,94.438522 677.175781,95.845390 
	C679.603882,102.946304 680.132507,110.151260 678.244141,117.483391 
	C677.969849,118.548538 677.084534,119.594902 678.270447,121.480461 
	C682.196289,118.422653 682.947388,114.161827 683.635742,109.857994 
	C684.029785,107.394501 682.775513,103.344696 686.220581,103.234528 
	C690.069763,103.111427 689.810852,107.486542 690.146057,110.229660 
	C691.645508,122.498650 687.426575,130.368011 676.407043,135.922913 
	C671.207764,138.543869 665.733704,140.616638 660.506104,143.185806 
	C656.152100,145.325607 655.063782,150.988281 659.090332,153.139847 
	C665.487732,156.558319 669.429932,162.339783 674.748474,166.670334 
	C680.388977,171.263000 687.014160,174.661392 693.275085,178.473328 
	C703.322632,184.590790 703.421509,188.146912 696.732971,197.741440 
	C691.993164,204.540543 686.678345,206.207596 679.264954,204.426285 
	C676.960571,203.872589 674.678345,204.464493 672.468567,205.459244 
	C668.678589,207.165329 664.810425,208.698837 660.964233,210.278381 
	C656.039551,212.300797 654.238037,215.977722 655.774719,221.095963 
	C656.252686,222.688004 656.750916,224.309647 657.515930,225.773514 
	C660.417664,231.326340 656.942200,237.407837 659.046326,243.002289 
	C653.978760,247.355957 655.303528,254.340088 652.410095,259.898590 
	C649.399170,265.682861 645.362671,270.931366 641.812317,275.967133 
	C638.707458,280.370972 634.981140,285.414398 630.576660,288.872620 
	C628.209595,288.482758 629.112610,286.532715 628.056152,285.444427 
	C627.582703,285.796631 626.953491,286.074005 626.603333,286.554688 
	C623.147461,291.298187 618.527527,294.099640 612.801941,295.338318 
	C606.077576,296.793091 601.047058,300.389160 597.864258,306.770752 
	C595.144592,312.223724 590.957031,316.593109 585.443481,319.419647 
	C583.078064,320.632263 582.190491,322.540070 581.799805,324.968719 
	C579.924744,336.625854 577.492493,348.212189 578.247131,360.148926 
	C578.668701,366.818420 577.507080,373.359955 576.697937,379.981750 
	C574.887573,394.795624 576.351013,409.595276 580.301453,423.991058 
	C582.052185,430.371002 587.462036,434.736389 591.095459,440.093597 
	C594.260437,444.760162 593.288879,447.457001 587.646912,448.130035 
	C583.161621,448.665131 578.654785,448.372498 574.283630,447.042450 
	C570.390686,445.857910 568.053894,443.359802 567.731628,439.171509 
	C567.631653,437.872437 567.841248,436.463470 566.511597,435.253784 
	C563.695251,435.672150 563.662842,437.121033 565.085449,439.261993 
	C566.835510,441.895813 568.585388,444.533264 570.225464,447.235809 
	C572.247314,450.567413 571.335388,452.980804 567.648315,454.183136 
	C561.256104,456.267517 555.091309,455.420837 549.410461,452.020142 
	C545.600769,449.739532 545.794922,445.559418 545.544556,441.380524 
	C539.475708,441.376404 539.368286,437.535553 540.170959,432.973389 
	C542.956543,417.141205 544.397156,400.999847 542.232544,385.210388 
	C539.819031,367.604919 537.382507,349.973602 534.726379,332.387665 
	C533.678528,325.449799 533.533508,325.254639 526.565186,325.409851 
	C513.216187,325.707245 500.125916,328.480896 486.871124,329.718445 
	C483.701874,330.014282 480.552826,330.290222 477.405090,329.959167 
	C474.086639,329.610168 470.954407,329.332031 467.675049,330.797577 
	C464.592438,332.175232 461.463348,330.634155 458.566742,329.316650 
	C453.868195,327.179474 449.178802,325.017181 444.546906,322.740631 
	C442.322235,321.647186 440.993195,322.169281 439.581451,324.187286 
	C430.572662,337.064972 423.919037,351.292419 416.395142,364.999054 
	C412.437469,372.208862 413.015747,380.426483 415.521027,388.335541 
	C419.909027,402.188354 425.467743,415.607758 432.169769,428.437561 
	C435.431213,434.681000 440.774231,439.829346 445.115234,445.518982 
	C448.616547,450.108093 447.549835,453.071350 441.824890,454.363281 
	C436.648682,455.531311 431.516571,454.728149 426.580017,453.086456 
	C422.062988,451.584320 421.845459,447.037262 420.271759,443.021118 
	C414.858276,443.978271 413.850159,440.733185 413.467072,436.059204 
	C412.679901,426.455078 408.647400,417.741760 404.858795,409.049805 
	C400.134674,398.211670 395.588867,387.243896 390.003082,376.849609 
	C385.468872,368.412201 382.568481,360.685760 390.276123,352.448029 
	C374.960663,362.735413 368.207642,375.170990 366.325958,395.442413 
	C365.787567,401.242371 365.141418,407.032837 364.501404,412.822845 
	C363.458160,422.260406 364.526672,431.023346 371.370300,438.449677 
	C373.375641,440.625793 376.915375,443.238220 375.444824,446.390045 
	C373.672516,450.188507 369.122253,449.265503 365.524780,449.375000 
	C363.537750,449.435516 361.500305,449.379639 359.556091,449.007812 
	C354.460510,448.033203 351.095978,445.288605 350.743591,439.711548 
	C350.583099,437.171783 350.226715,435.054413 347.054321,434.017151 
	C343.557617,432.873932 343.321991,429.648834 344.370117,426.494476 
	C349.046600,412.421204 348.991913,397.664032 350.669586,383.161194 
	C351.819672,373.218964 351.914642,363.225983 351.757111,353.225067 
	C351.686340,348.732880 353.770172,345.225677 357.351776,342.597748 
	C362.786926,338.609711 367.182037,333.626221 371.101807,328.203247 
	C376.298645,321.013367 378.021332,313.241730 375.084259,304.622925 
	C372.775085,297.846619 370.650391,291.007202 368.471222,284.187042 
	C367.885498,282.353790 366.741730,281.163147 365.114136,280.075592 
	C357.403625,274.923370 355.253387,267.481293 354.200836,258.385468 
	C352.374268,242.601318 362.476227,237.090714 373.827484,232.058151 
	C382.231140,228.332382 390.065918,223.579361 398.190826,219.355087 
	C407.934021,214.289444 418.291107,212.625824 429.157501,213.418167 
	C432.476379,213.660187 435.817596,213.712784 439.146729,213.676651 
	C454.313019,213.512009 469.433746,214.045135 484.547424,215.509903 
	C498.616791,216.873474 512.346680,215.307968 525.835815,210.486023 
	C536.923096,206.522675 548.589600,205.649872 560.346741,207.434479 
	C562.473694,207.757324 564.431458,207.854691 566.447510,206.302109 
	C569.557617,203.907013 573.201111,203.027435 577.255310,202.428665 
	C582.241882,201.692169 587.853027,200.062592 588.168762,193.029343 
	C588.204590,192.231506 589.208008,191.338089 589.959229,190.733017 
	C596.664978,185.332367 600.950500,177.924210 606.168518,171.293137 
	C608.399353,168.458191 608.960205,166.405640 605.148682,163.684204 
	C598.018982,158.593597 595.853943,150.491486 594.978577,142.226715 
	C594.633728,138.970947 593.476318,137.079544 590.550354,135.791870 
	C571.939514,127.601425 555.843994,116.060272 543.262634,99.910606 
	C536.349792,91.037140 526.269531,88.572762 516.015930,86.824425 
	C511.753876,86.097717 508.801788,89.709785 505.445648,91.784660 
	C503.904999,92.737106 502.356018,95.263657 500.347687,93.196304 
	C498.635162,91.433434 500.347504,89.469040 501.291931,87.758995 
	C501.853607,86.741943 502.424927,85.666939 503.234222,84.861404 
	C505.995300,82.113197 505.659973,79.755798 503.391296,76.631775 
	C499.237610,70.912025 500.100067,58.859188 505.010529,54.619114 
	C508.047852,61.822079 506.708740,72.287079 517.705017,73.617332 
	C518.835938,72.086662 518.270935,71.131294 517.802551,70.310829 
	C511.353210,59.012852 514.040771,46.978722 514.963928,35.099937 
	C515.078918,33.619915 515.612122,31.916510 517.547180,31.995367 
	C519.396912,32.070744 519.875549,33.738285 520.101685,35.228584 
	C520.899658,40.488659 521.526428,45.775024 522.348267,51.031086 
	C523.724487,59.832275 527.460632,67.386055 534.691162,73.912735 
	C534.552856,69.688286 532.577820,67.040047 530.850098,64.313080 
	C528.976807,61.356407 526.914124,58.490555 526.026794,55.045391 
	C525.577271,53.300163 524.892090,51.313843 526.303284,49.792408 
	C528.075745,47.881599 529.534119,50.538368 531.445190,50.528130 
	C532.068481,47.782875 532.574463,45.016472 533.347717,42.326893 
	C533.918823,40.340454 534.127747,37.419022 536.919617,37.653347 
	C539.954529,37.908073 539.240723,40.866936 539.257446,42.882950 
	C539.290710,46.880672 539.513123,50.822025 540.809753,55.046970 
	C542.856506,54.109600 543.250427,52.273716 543.902039,50.709652 
	C546.084473,45.471233 547.661987,40.047791 548.922058,34.511814 
	C549.415405,32.344582 549.643860,29.117304 552.601807,29.342628 
	C555.627930,29.573139 555.371155,32.711044 555.261353,34.978844 
	C554.875061,42.955482 554.460083,50.935204 553.811279,58.893795 
	C552.002930,81.072754 559.834229,98.940269 577.531189,112.427055 
	C579.189575,113.690857 581.117981,115.470055 583.369446,114.191200 
	C585.458923,113.004387 584.794983,110.548309 584.586426,108.673210 
	C583.440674,98.372276 583.626038,88.050476 583.803650,77.723190 
	C583.829712,76.210426 583.798523,74.652702 582.604614,73.524002 
	C580.291077,71.336838 580.351135,69.253571 583.168457,67.188126 
	C578.484558,62.975533 573.783203,59.210369 570.501831,54.154682 
	C568.784241,51.508480 567.263672,48.724857 565.803955,45.925186 
	C565.126160,44.625282 564.381287,42.976543 565.904724,41.815670 
	C567.759033,40.402676 569.035645,41.996132 570.099670,43.197777 
	C575.992371,49.852566 582.299500,55.988518 590.431702,59.898987 
	C592.772278,61.024456 594.943970,62.742569 597.844055,62.383198 
	C598.906433,60.296494 597.197693,59.276245 596.309326,58.033131 
	C594.509644,55.514713 591.742554,53.304817 595.218384,49.925861 
	C596.190674,48.980640 594.990356,47.399063 594.484619,46.200993 
	C592.542236,41.599369 590.517090,37.032600 588.584778,32.426811 
	C587.951050,30.916243 587.001587,29.113743 588.851685,27.926067 
	C590.860779,26.636347 592.337952,28.170826 593.531738,29.576313 
	C598.427734,35.340343 601.757263,42.080399 605.275818,48.698242 
	C608.949707,55.608204 612.292053,62.727402 617.423340,68.740662 
	C618.670654,70.202354 619.846436,72.405090 622.145813,71.879486 
	C624.467773,71.348732 624.432007,68.927261 624.918762,67.005600 
	C626.970032,58.905472 624.653137,51.156647 623.085999,43.348736 
	C622.430908,40.084747 621.614685,36.852055 621.006775,33.580048 
	C620.695007,31.902090 620.692749,30.036783 622.789001,29.480076 
	C624.610901,28.996241 625.470886,30.505775 626.158020,31.844404 
	C629.517334,38.389141 631.916382,45.307365 634.008972,52.340603 
	C634.382568,53.595974 634.174438,55.456852 635.478210,55.907299 
	C642.226807,58.238831 638.936279,62.427898 637.549988,66.257301 
	C636.871948,68.130196 636.041748,69.948006 635.189392,72.181839 
M618.399048,96.169121 
	C614.339600,83.525887 608.728943,80.932167 591.528870,78.788666 
	C591.089783,80.945869 591.556335,83.047356 591.776367,85.188934 
	C592.727539,94.447357 596.026550,103.329102 596.136047,112.715843 
	C596.245728,122.123688 597.306885,123.699120 606.015198,126.963165 
	C608.343933,127.836037 610.774780,128.434021 613.150513,129.184387 
	C617.338318,130.507065 619.081421,128.802521 619.026428,124.608025 
	C618.947937,118.628128 618.501038,112.597626 619.125610,106.685318 
	C619.484436,103.288551 619.738708,100.147415 618.399048,96.169121 
M560.378967,382.801025 
	C558.448181,383.538574 558.611633,385.424652 558.405823,386.889557 
	C557.196960,395.493439 556.800598,404.131683 557.878357,412.789917 
	C558.515686,417.909454 558.005371,423.234222 560.796692,428.036865 
	C562.081055,413.105499 562.760071,398.204315 560.378967,382.801025 
z"/>
</svg>