<svg version="1.1" id="Layer_1" xmlns="http://www.w3.org/2000/svg" xmlns:xlink="http://www.w3.org/1999/xlink" x="0px" y="0px"
	 width="100%" viewBox="120 55 784 392" enable-background="new 120 55 784 392" xml:space="preserve">
<path fill="#2a3a1e" opacity="1.000000" stroke="#5a7a30" stroke-width="4" stroke-linejoin="round" 
	d="
M646.636230,200.523560 
	C636.056458,219.392776 627.750916,239.218353 612.366333,254.660400 
	C607.454407,259.590729 605.495850,266.454987 603.520996,272.969482 
	C600.116333,284.200775 592.821899,292.080872 582.852112,297.505310 
	C578.788269,299.716370 576.727051,302.492554 575.625854,306.863647 
	C572.271545,320.178009 572.778809,333.651581 573.720093,347.101318 
	C574.140320,353.105103 574.802002,359.136871 573.992065,365.041077 
	C572.379456,376.796204 574.164124,388.264252 575.774536,399.798218 
	C577.356140,411.126282 579.732971,422.015747 587.875244,430.907959 
	C590.822998,434.127167 589.339172,436.446503 584.958862,437.407318 
	C579.972961,438.500885 575.097961,437.641754 570.113037,436.637268 
	C571.284302,443.541321 569.964478,445.382324 563.198975,445.216278 
	C555.813660,445.035004 548.221985,444.692047 545.391296,435.661469 
	C545.128113,434.821686 544.186279,434.015106 543.357727,433.563202 
	C539.787170,431.615967 539.477173,428.530762 539.960510,424.978363 
	C541.941528,410.417816 543.076111,395.746063 541.544556,381.137299 
	C540.072510,367.096039 537.369019,353.185913 535.294373,339.205139 
	C533.976990,330.327271 532.884094,321.416138 531.571411,312.537567 
	C530.417908,304.735626 529.650269,303.950989 522.088013,304.386566 
	C498.080353,305.769287 474.582031,303.151947 451.658478,295.804291 
	C449.380157,295.074005 447.897766,295.585999 446.533173,297.496124 
	C435.697235,312.663788 424.498383,327.559448 415.930267,344.249329 
	C410.976990,353.897919 409.764404,363.362030 413.934204,373.508148 
	C421.490265,391.893768 430.334351,409.597656 441.549622,426.037598 
	C443.975983,429.594238 447.228638,432.576782 449.816376,436.036438 
	C453.085968,440.407715 452.078735,442.853271 446.779327,444.214172 
	C436.910004,446.748718 431.508240,444.846008 425.738678,436.824738 
	C425.256073,436.153809 424.798187,435.184021 424.131012,434.970184 
	C417.141235,432.729767 416.066711,426.424042 413.809723,420.707031 
	C407.615906,405.017639 398.976746,390.538269 390.985657,375.743225 
	C388.057617,370.322144 385.336090,364.769958 382.090546,359.544495 
	C377.258423,351.764587 378.265686,344.361481 382.698517,336.960266 
	C384.149963,334.536957 385.711151,332.179413 386.944824,329.529785 
	C376.726868,337.796478 365.939148,345.461975 358.733337,356.820770 
	C355.824371,361.406250 355.084381,366.722656 354.023926,371.965881 
	C351.842224,382.753265 350.796631,393.683716 349.429199,404.573242 
	C348.225433,414.159515 350.143280,423.021973 355.526886,431.228119 
	C360.029785,438.091766 358.205048,440.958832 349.868042,441.322205 
	C340.078827,441.748901 334.407104,439.439850 332.820801,429.535492 
	C332.670593,428.597687 332.319214,427.352081 331.631775,426.894409 
	C326.369049,423.390442 327.485321,418.312500 328.104187,413.356293 
	C331.234924,388.282898 335.690247,363.360474 336.722290,338.048401 
	C336.971710,331.931183 340.732910,328.019348 345.061523,324.463959 
	C351.371796,319.280945 357.699097,314.129150 363.126099,307.974274 
	C371.904694,298.018280 374.280945,287.044128 368.586945,274.721283 
	C366.562164,270.339233 364.651917,265.902496 362.550568,261.557892 
	C359.429810,255.105820 356.321625,248.695618 355.179016,241.487259 
	C353.692017,232.106445 355.887451,224.325485 364.083832,218.808640 
	C375.120819,211.379822 385.510834,202.883118 398.027466,197.880157 
	C408.986053,193.499985 420.285248,191.815598 432.183411,192.438065 
	C445.977478,193.159714 459.773376,193.885986 473.569855,194.577820 
	C482.063507,195.003754 490.507263,195.863541 498.908569,196.902222 
	C513.622498,198.721313 528.139893,197.604462 542.680115,195.455872 
	C552.132019,194.059189 561.681030,194.201126 571.097534,195.260941 
	C581.824219,196.468201 589.898804,192.616150 595.153503,183.681854 
	C601.653442,172.630341 606.738770,160.818420 611.948914,149.097504 
	C613.297119,146.064560 612.187500,143.941086 609.996460,142.067093 
	C596.574646,130.587280 596.193298,115.554016 598.641724,99.861839 
	C599.528931,94.175751 602.348450,93.310333 606.935120,96.795471 
	C609.164307,98.489349 610.811951,100.960228 613.621704,101.887642 
	C616.437195,97.409920 614.895020,94.069466 609.122803,91.484116 
	C606.466797,90.294464 602.537170,91.433289 601.157776,88.194466 
	C599.645325,84.643143 604.213135,83.943863 605.214233,81.490349 
	C606.593445,78.110016 605.875305,74.553246 605.344543,71.135406 
	C604.854492,67.979424 604.588867,64.851463 604.802673,61.687378 
	C604.938965,59.670055 605.189575,57.350792 607.646301,56.999207 
	C610.202271,56.633415 610.845581,58.801361 611.407227,60.810123 
	C612.890076,66.113586 614.768799,71.271904 617.245117,76.200249 
	C618.137451,77.976105 618.756714,80.003906 621.589417,79.012970 
	C624.319519,78.057922 627.949707,78.312195 627.926880,74.043831 
	C627.908203,70.549210 627.622192,67.056580 627.490051,63.561733 
	C627.433716,62.071381 627.331421,60.562584 627.494385,59.089203 
	C627.699036,57.238831 628.149292,55.242664 630.403687,54.968838 
	C632.744019,54.684574 633.494568,56.647549 634.040833,58.395916 
	C635.876953,64.272415 637.398438,70.255142 639.436218,76.058212 
	C641.108643,80.820938 642.541382,85.817665 646.183777,89.709457 
	C649.117615,87.979172 648.785461,85.175941 649.538330,82.914055 
	C649.952942,81.668365 649.868774,80.262062 650.237244,78.994362 
	C650.849243,76.888359 651.588379,74.506424 654.408020,74.928604 
	C656.846863,75.293762 657.118530,77.523071 657.285522,79.587158 
	C657.762207,85.480026 656.998962,91.258110 655.222839,96.844421 
	C650.686340,111.113029 654.204468,123.657356 662.834351,135.332504 
	C671.542847,147.113907 679.639954,159.360474 692.000000,167.929718 
	C696.127747,170.791489 696.601196,175.374420 694.270447,179.989792 
	C690.887024,186.689377 682.979370,190.982071 675.202637,190.008301 
	C669.207458,189.257614 663.274597,189.619308 657.275208,189.824860 
	C652.011902,190.005188 649.300354,192.099655 648.217468,197.002899 
	C647.972046,198.114563 647.290161,199.129852 646.636230,200.523560 
M559.002014,412.002655 
	C559.083374,412.659973 559.161682,413.317657 559.248291,413.974304 
	C559.269531,414.135437 559.355408,414.430817 559.348572,414.432648 
	C558.705566,414.607361 559.731018,415.202606 559.883179,415.829346 
	C559.083374,403.206818 558.365234,391.873749 557.647156,380.540710 
	C557.411560,380.554840 557.176025,380.569000 556.940491,380.583160 
	C557.586426,390.809692 558.232300,401.036224 559.002014,412.002655 
z"/>
</svg>