<svg version="1.1" id="Layer_1" xmlns="http://www.w3.org/2000/svg" xmlns:xlink="http://www.w3.org/1999/xlink" x="0px" y="0px"
	 width="100%" viewBox="65 40 886 443" enable-background="new 65 40 886 443" xml:space="preserve">
<path fill="#2a3a1e" opacity="1.000000" stroke="#5a7a30" stroke-width="4" stroke-linejoin="round" 
	d="
M636.026123,93.801308 
	C636.261414,94.292572 636.317139,94.452698 636.404358,94.593300 
	C638.069580,97.277252 639.627075,100.752464 643.315674,100.119667 
	C646.838135,99.515373 647.767944,95.840111 648.537659,92.794998 
	C649.554749,88.771156 650.114502,84.633453 650.949524,80.560822 
	C651.209229,79.294044 651.421387,77.701500 653.147583,77.655487 
	C654.887695,77.609108 655.142578,79.132584 655.423828,80.441391 
	C657.628357,90.701469 655.642151,100.274902 650.610596,109.323875 
	C646.660278,116.428200 644.089905,123.906303 644.314209,132.148224 
	C644.362366,133.918472 644.014282,135.876938 646.283997,137.338226 
	C655.668762,131.770248 662.505066,124.111862 665.553955,113.261787 
	C666.217346,110.901077 665.949951,106.772774 669.354248,107.341438 
	C672.590637,107.882042 671.210571,111.812935 671.265076,114.281929 
	C671.495850,124.733635 666.828552,133.202698 660.112122,140.770279 
	C658.123535,143.010880 656.052612,145.182159 654.138428,147.484177 
	C650.983032,151.278961 651.025635,156.345459 654.104004,158.935440 
	C662.091125,165.655411 665.791443,175.994095 674.529175,181.900635 
	C678.114563,184.324341 681.671448,186.814346 685.051697,189.511826 
	C690.326172,193.720932 691.929199,199.322327 689.619934,204.474808 
	C686.722046,210.940628 680.885315,215.086563 674.797180,214.047592 
	C667.547546,212.810394 660.899048,215.020752 654.223083,216.838028 
	C649.809021,218.039566 648.841797,222.361847 649.363281,226.233887 
	C650.698364,236.146576 647.990784,245.375671 645.476685,254.693970 
	C641.338867,270.030701 632.706665,282.061554 618.985107,290.169769 
	C612.823547,293.810760 608.825439,299.201721 605.508728,305.240509 
	C598.375977,318.227356 590.315735,330.367920 576.887939,337.804596 
	C575.258179,338.707184 574.719116,340.243256 574.362610,341.908417 
	C570.985168,357.685211 567.141357,373.393433 567.268555,389.689606 
	C567.298767,393.558197 566.325378,397.273804 565.656494,401.042816 
	C562.777466,417.265503 565.254944,433.203430 568.482178,449.061432 
	C569.220581,452.689911 571.580139,455.634705 573.876892,458.536682 
	C576.663696,462.057892 579.513672,465.574615 581.862366,469.385376 
	C584.725220,474.030396 583.576721,475.866669 577.997864,476.285645 
	C573.022461,476.659302 568.040039,476.716492 562.617554,475.936279 
	C563.218323,481.172089 559.962524,482.137207 555.932983,482.492859 
	C550.463806,482.975555 545.353149,481.919250 540.464966,479.525146 
	C538.444275,478.535461 536.861389,477.088318 536.000732,475.001343 
	C534.622131,471.658478 534.952271,467.313568 529.945618,466.252472 
	C528.607239,465.968842 528.672546,463.693207 528.679199,462.189789 
	C528.698364,457.858673 528.473633,453.500122 528.873535,449.201538 
	C530.954895,426.825562 530.703186,404.731903 523.721863,382.991333 
	C519.441406,369.661560 517.876587,355.701813 516.542358,341.620361 
	C513.266235,340.684998 510.232269,341.850098 507.160583,342.128052 
	C489.910400,343.689026 472.673004,345.267670 455.318420,343.447052 
	C449.659393,342.853363 444.126495,341.868286 438.673370,340.330566 
	C436.379700,339.683807 434.644348,339.746185 433.328552,342.310669 
	C428.724945,351.282745 422.523193,359.229797 415.421478,366.230865 
	C403.885956,377.602936 402.113464,390.269867 408.667511,404.522278 
	C414.094177,416.322968 419.749023,428.019073 425.340302,439.743622 
	C427.540833,444.357849 431.228760,447.794617 434.859772,451.223053 
	C439.984100,456.061615 444.464447,461.412903 448.027344,467.480713 
	C450.276489,471.311096 449.343567,473.087006 444.906921,473.222473 
	C439.940125,473.374115 434.925323,473.992065 430.012909,472.459869 
	C426.583374,471.390167 423.503571,469.790283 421.344452,466.875641 
	C419.053284,463.782898 417.819916,459.696960 412.776978,459.647369 
	C411.421753,459.634064 410.705688,457.615112 410.140381,456.217926 
	C401.066254,433.789459 389.484863,412.576508 378.466705,391.096954 
	C369.850861,374.300568 369.892853,372.947754 382.636993,359.339539 
	C359.638062,372.687469 347.727600,392.401764 346.172058,418.550079 
	C345.607208,428.044891 345.276398,437.447937 346.176025,446.939026 
	C346.829010,453.827911 350.378357,459.104889 354.307251,464.299561 
	C356.622101,467.360138 358.976013,470.355896 360.491089,473.939575 
	C361.686462,476.766998 360.805695,478.466858 357.966736,479.197845 
	C351.677094,480.817200 345.448395,480.714294 339.321655,478.361084 
	C334.921478,476.671051 333.378662,472.778259 331.953064,468.822479 
	C330.787506,465.588135 330.195648,462.244843 326.581726,460.297089 
	C324.456360,459.151611 324.568298,456.218323 324.712891,453.870239 
	C325.500366,441.079620 326.539673,428.301605 327.127869,415.502502 
	C327.738678,402.212128 329.274933,388.934204 328.144775,375.597931 
	C327.441101,367.294617 329.484009,360.219269 336.323608,354.740875 
	C341.674896,350.454559 346.239532,345.391510 349.024689,338.908905 
	C351.538055,333.058868 352.530487,327.200684 350.756165,320.931946 
	C348.444489,312.764496 345.195770,304.982910 341.834930,296.834778 
	C340.190338,297.750275 338.958954,298.435730 337.009888,299.520691 
	C335.186615,293.373444 333.309631,287.630127 331.795135,281.792755 
	C329.842560,274.266907 330.139496,266.509369 330.923462,258.925415 
	C331.771027,250.726212 336.605042,244.327866 343.076111,239.531021 
	C360.481384,226.629013 379.220184,216.356171 400.629456,211.648743 
	C414.598541,208.577255 428.480957,211.227127 442.379333,212.266342 
	C462.609161,213.779007 482.674042,217.833633 503.071960,216.617508 
	C511.690582,216.103653 520.256226,214.721085 528.850708,213.776154 
	C539.164734,212.642136 549.500427,213.164078 559.775635,214.014465 
	C571.593750,214.992554 580.022339,210.666229 585.585571,200.108810 
	C589.773010,192.162094 594.630371,184.581100 600.449097,177.665543 
	C599.926636,177.010300 599.705994,176.441772 599.324707,176.297455 
	C585.332336,171.001480 582.327759,158.451630 579.895935,145.948868 
	C578.551880,139.039200 581.879150,137.099747 588.331055,140.138641 
	C590.390686,141.108704 592.374390,142.239868 594.803711,142.602341 
	C591.082581,140.287384 587.430664,137.851105 583.626343,135.682083 
	C575.003418,130.765747 568.368652,123.969994 563.504883,115.331375 
	C559.256165,107.785034 554.742004,100.417786 549.558228,93.435204 
	C542.950256,84.534157 542.285706,73.945160 542.336853,63.390244 
	C542.363342,57.927231 542.812500,52.398109 544.710571,47.160614 
	C545.306274,45.516579 545.530579,43.082748 547.856750,43.254059 
	C550.176636,43.424915 550.075745,45.767326 550.361450,47.552746 
	C551.625793,55.453266 550.322815,63.575191 552.361389,71.399147 
	C553.679077,76.456184 554.442200,81.776222 558.211731,85.935196 
	C560.275085,84.448288 559.557495,81.459648 562.496521,80.309441 
	C566.944397,85.673393 562.812988,93.753525 567.966370,99.320053 
	C572.976807,93.408676 570.805298,85.043610 574.877869,79.216377 
	C577.771667,79.702385 577.967346,81.584068 578.457275,83.365990 
	C580.065552,89.214516 578.993164,95.034264 577.840820,100.694221 
	C576.283081,108.344978 578.621948,114.372017 583.786987,119.802948 
	C588.606201,124.870285 594.846130,127.727974 600.709106,131.199265 
	C603.861572,133.065720 606.907227,135.111740 610.019714,137.046783 
	C614.010742,139.528030 615.596619,138.945877 616.418762,134.255020 
	C617.254333,129.487625 617.109070,124.638062 616.934021,119.797112 
	C616.809692,116.359756 616.035645,112.853470 617.397095,109.325195 
	C620.771057,108.718826 621.244324,111.414398 622.033203,113.410370 
	C625.741272,122.791977 626.010559,132.579407 625.011902,142.439865 
	C624.471313,147.777344 626.098938,150.071518 631.797180,151.021423 
	C631.984497,150.603470 632.422729,150.113907 632.342529,149.733704 
	C630.077454,138.994858 631.550842,128.224106 631.825867,117.441231 
	C632.143799,104.977524 626.327759,95.389175 616.390076,88.215965 
	C611.226013,84.488434 606.213074,80.635590 602.749023,75.183952 
	C601.645386,73.447067 599.684021,71.252754 601.944031,69.440582 
	C603.973633,67.813156 605.482788,70.248871 607.004517,71.384438 
	C609.804443,73.473885 612.449524,75.796944 615.379578,77.679535 
	C619.351990,80.231873 621.964722,78.934952 622.609802,74.182877 
	C623.269897,69.319489 622.406616,64.557198 621.140686,59.863682 
	C619.970459,55.524975 618.693970,51.211784 617.657227,46.841579 
	C617.158020,44.737549 615.516418,41.878117 618.660461,40.781013 
	C621.276611,39.868130 622.170166,42.689102 623.237305,44.494663 
	C628.780457,53.873337 630.817505,64.300835 632.345398,74.896858 
	C633.244385,81.131882 633.446228,87.509552 636.026123,93.801308 
M546.618225,437.907349 
	C547.651611,441.774689 546.948608,445.960388 549.110474,450.889191 
	C548.411438,435.194458 549.940430,420.649231 547.747070,406.216675 
	C545.352051,416.427521 546.160706,426.721069 546.618225,437.907349 
z"/>
</svg>